<?xml version="1.0" encoding="UTF-8" standalone="no"?>
<!-- Created with Inkscape (http://www.inkscape.org/) -->

<svg
   xmlns:dc="http://purl.org/dc/elements/1.1/"
   xmlns:cc="http://creativecommons.org/ns#"
   xmlns:rdf="http://www.w3.org/1999/02/22-rdf-syntax-ns#"
   xmlns:svg="http://www.w3.org/2000/svg"
   xmlns="http://www.w3.org/2000/svg"
   xmlns:sodipodi="http://sodipodi.sourceforge.net/DTD/sodipodi-0.dtd"
   xmlns:inkscape="http://www.inkscape.org/namespaces/inkscape"
   width="1200"
   height="1200"
   viewBox="0 0 317.49999 317.50001"
   version="1.1"
   id="svg8"
   inkscape:version="0.92.5 (2060ec1f9f, 2020-04-08)"
   sodipodi:docname="dorelease-logo.svg"
   inkscape:export-filename="/home/phillip/Work/dorelease/branding+web/dorelease-logo.png"
   inkscape:export-xdpi="160"
   inkscape:export-ydpi="160">
  <defs
     id="defs2" />
  <sodipodi:namedview
     id="base"
     pagecolor="#ffffff"
     bordercolor="#666666"
     borderopacity="1.0"
     inkscape:pageopacity="0.0"
     inkscape:pageshadow="2"
     inkscape:zoom="0.31422667"
     inkscape:cx="994.70025"
     inkscape:cy="442.6535"
     inkscape:document-units="mm"
     inkscape:current-layer="layer2"
     showgrid="false"
     units="px"
     inkscape:window-width="1366"
     inkscape:window-height="710"
     inkscape:window-x="0"
     inkscape:window-y="27"
     inkscape:window-maximized="1" />
  <metadata
     id="metadata5">
    <rdf:RDF>
      <cc:Work
         rdf:about="">
        <dc:format>image/svg+xml</dc:format>
        <dc:type
           rdf:resource="http://purl.org/dc/dcmitype/StillImage" />
        <dc:title />
      </cc:Work>
    </rdf:RDF>
  </metadata>
  <g
     inkscape:groupmode="layer"
     id="layer2"
     inkscape:label="mono">
    <g
       id="g4767"
       transform="translate(-1.3335,-85.965998)">
      <path
         sodipodi:nodetypes="cccccccccccc"
         inkscape:connector-curvature="0"
         id="path4700"
         transform="scale(0.26458333)"
         d="m 827.44141,516.83984 c 0,3 0,6 0,9 l -0.002,141 h -47.80078 v 9 c 34.60026,0 69.20052,0 103.80078,0 v -9 c -15.66667,0 -31.33333,0 -47,0 v -141 h 47 v -9 z"
         style="font-style:normal;font-variant:normal;font-weight:normal;font-stretch:normal;font-size:120px;line-height:1.25;font-family:'Share Tech Mono';-inkscape-font-specification:'Share Tech Mono';letter-spacing:0px;word-spacing:0px;fill:#ff6600;fill-opacity:1;stroke:none;stroke-width:0.99999994" />
      <path
         d="m 249.74534,137.19174 -10.033,-4.318 v -2.92099 l 12.065,5.68324 v 3.33375 l -12.065,5.55625 v -2.9845 z"
         style="font-style:normal;font-variant:normal;font-weight:normal;font-stretch:normal;font-size:120px;line-height:1.25;font-family:'Share Tech Mono';-inkscape-font-specification:'Share Tech Mono';letter-spacing:0px;word-spacing:0px;fill:#ff6600;fill-opacity:1;stroke:none;stroke-width:0.26458332"
         id="path4702"
         inkscape:connector-curvature="0" />
      <path
         d="m 266.89031,137.19174 -10.033,-4.318 v -2.92099 l 12.065,5.68324 v 3.33375 l -12.065,5.55625 v -2.9845 z"
         style="font-style:normal;font-variant:normal;font-weight:normal;font-stretch:normal;font-size:120px;line-height:1.25;font-family:'Share Tech Mono';-inkscape-font-specification:'Share Tech Mono';letter-spacing:0px;word-spacing:0px;fill:#ff6600;fill-opacity:1;stroke:none;stroke-width:0.26458332"
         id="path4704"
         inkscape:connector-curvature="0" />
      <path
         d="m 60.483941,186.81699 q -1.04775,0.73025 -2.54,0.73025 h -1.30175 q -2.794001,0 -4.095751,-1.17475 -1.30175,-1.2065 -1.30175,-3.90525 v -5.715 q 0,-2.667 1.30175,-3.8735 1.3335,-1.2065 4.095751,-1.2065 h 3.683 v -6.35 h 2.698747 v 22.225 h -2.539997 z m -2.222503,-1.651 q 1.047753,0 1.55575,-0.53975 0.508003,-0.5715 0.508003,-1.2065 v -9.36625 h -4.0005 q -1.17475,0 -1.778001,0.53975 -0.60325,0.53975 -0.60325,1.524 v 6.985 q 0,0.98425 0.60325,1.524 0.603251,0.53975 1.778001,0.53975 z"
         style="font-style:normal;font-weight:normal;font-size:40px;line-height:1.25;font-family:sans-serif;letter-spacing:0px;word-spacing:0px;fill:#ff6600;fill-opacity:1;stroke:none;stroke-width:0.26458332"
         id="path4706"
         inkscape:connector-curvature="0" />
      <path
         d="m 80.200659,182.46724 q 0,2.667 -1.3335,3.8735 -1.30175,1.2065 -4.064,1.2065 h -1.04775 q -2.76225,0 -4.09575,-1.2065 -1.30175,-1.2065 -1.30175,-3.8735 v -5.715 q 0,-2.667 1.30175,-3.8735 1.3335,-1.2065 4.09575,-1.2065 h 1.04775 q 2.76225,0 4.064,1.2065 1.3335,1.2065 1.3335,3.8735 z m -2.69875,-6.35 q 0,-0.98425 -0.60325,-1.524 -0.60325,-0.53975 -1.778,-0.53975 h -1.68275 q -1.17475,0 -1.778,0.53975 -0.60325,0.53975 -0.60325,1.524 v 6.985 q 0,0.98425 0.60325,1.524 0.60325,0.53975 1.778,0.53975 h 1.68275 q 1.17475,0 1.778,-0.53975 0.60325,-0.53975 0.60325,-1.524 z"
         style="font-style:normal;font-weight:normal;font-size:40px;line-height:1.25;font-family:sans-serif;letter-spacing:0px;word-spacing:0px;fill:#ff6600;fill-opacity:1;stroke:none;stroke-width:0.26458332"
         id="path4708"
         inkscape:connector-curvature="0" />
      <path
         d="m 88.360377,185.16599 v -11.1125 h -2.31775 v -2.38125 h 4.85775 v 0.85725 q 1.04775,-0.85725 2.54,-0.85725 h 3.27025 v 2.54 h -3.58775 q -1.016,0 -1.524,0.66675 -0.508,0.635 -0.53975,1.30175 v 8.98525 h 3.46075 v 2.38125 h -8.47725 v -2.38125 z"
         style="font-style:normal;font-weight:normal;font-size:40px;line-height:1.25;font-family:sans-serif;letter-spacing:0px;word-spacing:0px;fill:#00ff00;fill-opacity:1;stroke:none;stroke-width:0.26458332"
         id="path4710"
         inkscape:connector-curvature="0" />
      <path
         d="m 108.3946,187.54724 q -2.794,0 -4.09575,-1.17475 -1.30175,-1.2065 -1.30175,-3.90525 v -5.715 q 0,-2.7305 1.17475,-3.90525 1.17475,-1.17475 3.90525,-1.17475 h 1.49225 q 2.25425,0 3.39725,1.27 1.17475,1.23825 1.17475,3.65125 v 4.1275 h -8.4455 v 2.38125 q 0,0.98425 0.60325,1.524 0.60325,0.53975 1.778,0.53975 h 5.04825 v 2.38125 z m 3.1115,-11.58875 q 0,-0.8255 -0.53975,-1.36525 -0.53975,-0.53975 -1.36525,-0.53975 h -1.8415 q -1.143,0 -1.61925,0.53975 -0.4445,0.508 -0.4445,1.524 v 2.2225 h 5.81025 z"
         style="font-style:normal;font-weight:normal;font-size:40px;line-height:1.25;font-family:sans-serif;letter-spacing:0px;word-spacing:0px;fill:#00ff00;fill-opacity:1;stroke:none;stroke-width:0.26458332"
         id="path4712"
         inkscape:connector-curvature="0" />
      <path
         d="m 126.74606,187.54724 q -1.0795,0 -1.905,-0.762 -0.79375,-0.762 -0.79375,-2.413 v -16.66875 h -4.66725 v -2.38125 h 7.366 v 18.89125 q 0,0.508 0.254,0.73025 0.254,0.22225 0.85725,0.22225 h 4.22275 v 2.38125 z"
         style="font-style:normal;font-weight:normal;font-size:40px;line-height:1.25;font-family:sans-serif;letter-spacing:0px;word-spacing:0px;fill:#00ff00;fill-opacity:1;stroke:none;stroke-width:0.26458332"
         id="path4714"
         inkscape:connector-curvature="0" />
      <path
         d="m 142.68453,187.54724 q -2.794,0 -4.09575,-1.17475 -1.30175,-1.2065 -1.30175,-3.90525 v -5.715 q 0,-2.7305 1.17475,-3.90525 1.17475,-1.17475 3.90525,-1.17475 h 1.49225 q 2.25425,0 3.39725,1.27 1.17475,1.23825 1.17475,3.65125 v 4.1275 h -8.4455 v 2.38125 q 0,0.98425 0.60325,1.524 0.60325,0.53975 1.778,0.53975 h 5.04825 v 2.38125 z m 3.1115,-11.58875 q 0,-0.8255 -0.53975,-1.36525 -0.53975,-0.53975 -1.36525,-0.53975 h -1.8415 q -1.143,0 -1.61925,0.53975 -0.4445,0.508 -0.4445,1.524 v 2.2225 h 5.81025 z"
         style="font-style:normal;font-weight:normal;font-size:40px;line-height:1.25;font-family:sans-serif;letter-spacing:0px;word-spacing:0px;fill:#00ff00;fill-opacity:1;stroke:none;stroke-width:0.26458332"
         id="path4716"
         inkscape:connector-curvature="0" />
      <path
         d="m 164.68725,187.54724 q -0.41275,0 -0.92075,-0.254 -0.47625,-0.254 -0.8255,-0.6985 -0.73025,0.9525 -1.93675,0.9525 h -2.82575 q -2.413,0 -3.52425,-0.9525 -1.0795,-0.98425 -1.0795,-3.33375 v -0.635 q 0,-4.92125 4.6355,-4.92125 h 3.937 v -1.5875 q 0,-0.98425 -0.60325,-1.524 -0.60325,-0.53975 -1.778,-0.53975 h -4.92125 v -2.38125 h 4.60375 q 2.76225,0 4.064,1.2065 1.3335,1.2065 1.3335,3.8735 v 7.62 q 0,0.47625 0.34925,0.73025 0.381,0.22225 1.23825,0.22225 v 2.2225 z m -4.0005,-2.38125 q 0.9525,0 1.2065,-0.4445 0.254,-0.4445 0.254,-1.143 v -3.4925 h -3.96875 q -0.8255,0 -1.36525,0.53975 -0.53975,0.53975 -0.53975,1.36525 v 1.5875 q 0,0.8255 0.381,1.2065 0.381,0.381 1.2065,0.381 z"
         style="font-style:normal;font-weight:normal;font-size:40px;line-height:1.25;font-family:sans-serif;letter-spacing:0px;word-spacing:0px;fill:#00ff00;fill-opacity:1;stroke:none;stroke-width:0.26458332"
         id="path4718"
         inkscape:connector-curvature="0" />
      <path
         d="m 181.99097,183.57849 q 0,2.00025 -1.23825,2.9845 -1.2065,0.98425 -3.52425,0.98425 h -4.73075 v -2.38125 h 5.04825 q 0.85725,0 1.30175,-0.34925 0.4445,-0.381 0.4445,-1.0795 v -1.68275 q 0,-1.42875 -1.36525,-1.42875 h -1.17475 q -2.2225,0 -3.33375,-0.9525 -1.0795,-0.98425 -1.0795,-3.07975 v -0.92075 q 0,-2.12725 1.2065,-3.048 1.2065,-0.9525 3.556,-0.9525 h 4.2545 v 2.38125 h -4.572 q -0.79375,0 -1.27,0.381 -0.47625,0.34925 -0.47625,1.04775 v 1.143 q 0,0.73025 0.41275,1.0795 0.4445,0.34925 1.11125,0.34925 h 1.0795 q 2.12725,0 3.2385,1.04775 1.11125,1.016 1.11125,3.048 z"
         style="font-style:normal;font-weight:normal;font-size:40px;line-height:1.25;font-family:sans-serif;letter-spacing:0px;word-spacing:0px;fill:#00ff00;fill-opacity:1;stroke:none;stroke-width:0.26458332"
         id="path4720"
         inkscape:connector-curvature="0" />
      <path
         d="m 194.11944,187.54724 q -2.794,0 -4.09575,-1.17475 -1.30175,-1.2065 -1.30175,-3.90525 v -5.715 q 0,-2.7305 1.17475,-3.90525 1.17475,-1.17475 3.90525,-1.17475 h 1.49225 q 2.25425,0 3.39725,1.27 1.17475,1.23825 1.17475,3.65125 v 4.1275 h -8.4455 v 2.38125 q 0,0.98425 0.60325,1.524 0.60325,0.53975 1.778,0.53975 h 5.04825 v 2.38125 z m 3.1115,-11.58875 q 0,-0.8255 -0.53975,-1.36525 -0.53975,-0.53975 -1.36525,-0.53975 h -1.8415 q -1.143,0 -1.61925,0.53975 -0.4445,0.508 -0.4445,1.524 v 2.2225 h 5.81025 z"
         style="font-style:normal;font-weight:normal;font-size:40px;line-height:1.25;font-family:sans-serif;letter-spacing:0px;word-spacing:0px;fill:#00ff00;fill-opacity:1;stroke:none;stroke-width:0.26458332"
         id="path4722"
         inkscape:connector-curvature="0" />
      <path
         d="m 249.74534,176.87924 -10.033,-4.318 v -2.921 l 12.065,5.68325 v 3.33375 l -12.065,5.55625 v -2.9845 z"
         style="font-style:normal;font-weight:normal;font-size:40px;line-height:1.25;font-family:sans-serif;letter-spacing:0px;word-spacing:0px;fill:#ff6600;fill-opacity:1;stroke:none;stroke-width:0.26458332"
         id="path4728"
         inkscape:connector-curvature="0" />
      <path
         d="m 266.89031,176.87924 -10.033,-4.318 v -2.921 l 12.065,5.68325 v 3.33375 l -12.065,5.55625 v -2.9845 z"
         style="font-style:normal;font-weight:normal;font-size:40px;line-height:1.25;font-family:sans-serif;letter-spacing:0px;word-spacing:0px;fill:#ff6600;fill-opacity:1;stroke:none;stroke-width:0.26458332"
         id="path4730"
         inkscape:connector-curvature="0" />
    </g>
    <g
       id="g4797"
       style="fill:#000000"
       transform="translate(-1.3335,4.8471492)">
      <path
         style="font-style:normal;font-variant:normal;font-weight:normal;font-stretch:normal;font-size:120px;line-height:1.25;font-family:'Share Tech Mono';-inkscape-font-specification:'Share Tech Mono';letter-spacing:0px;word-spacing:0px;fill:#000000;fill-opacity:1;stroke:none;stroke-width:0.99999994"
         d="m 827.44141,516.83984 c 0,3 0,6 0,9 l -0.002,141 h -47.80078 v 9 c 34.60026,0 69.20052,0 103.80078,0 v -9 c -15.66667,0 -31.33333,0 -47,0 v -141 h 47 v -9 z"
         transform="scale(0.26458333)"
         id="path4769"
         inkscape:connector-curvature="0"
         sodipodi:nodetypes="cccccccccccc" />
      <path
         inkscape:connector-curvature="0"
         id="path4771"
         style="font-style:normal;font-variant:normal;font-weight:normal;font-stretch:normal;font-size:120px;line-height:1.25;font-family:'Share Tech Mono';-inkscape-font-specification:'Share Tech Mono';letter-spacing:0px;word-spacing:0px;fill:#000000;fill-opacity:1;stroke:none;stroke-width:0.26458332"
         d="m 249.74534,137.19174 -10.033,-4.318 v -2.92099 l 12.065,5.68324 v 3.33375 l -12.065,5.55625 v -2.9845 z" />
      <path
         inkscape:connector-curvature="0"
         id="path4773"
         style="font-style:normal;font-variant:normal;font-weight:normal;font-stretch:normal;font-size:120px;line-height:1.25;font-family:'Share Tech Mono';-inkscape-font-specification:'Share Tech Mono';letter-spacing:0px;word-spacing:0px;fill:#000000;fill-opacity:1;stroke:none;stroke-width:0.26458332"
         d="m 266.89031,137.19174 -10.033,-4.318 v -2.92099 l 12.065,5.68324 v 3.33375 l -12.065,5.55625 v -2.9845 z" />
      <path
         inkscape:connector-curvature="0"
         id="path4775"
         style="font-style:normal;font-weight:normal;font-size:40px;line-height:1.25;font-family:sans-serif;letter-spacing:0px;word-spacing:0px;fill:#000000;fill-opacity:1;stroke:none;stroke-width:0.26458332"
         d="m 60.483941,186.81699 q -1.04775,0.73025 -2.54,0.73025 h -1.30175 q -2.794001,0 -4.095751,-1.17475 -1.30175,-1.2065 -1.30175,-3.90525 v -5.715 q 0,-2.667 1.30175,-3.8735 1.3335,-1.2065 4.095751,-1.2065 h 3.683 v -6.35 h 2.698747 v 22.225 h -2.539997 z m -2.222503,-1.651 q 1.047753,0 1.55575,-0.53975 0.508003,-0.5715 0.508003,-1.2065 v -9.36625 h -4.0005 q -1.17475,0 -1.778001,0.53975 -0.60325,0.53975 -0.60325,1.524 v 6.985 q 0,0.98425 0.60325,1.524 0.603251,0.53975 1.778001,0.53975 z" />
      <path
         inkscape:connector-curvature="0"
         id="path4777"
         style="font-style:normal;font-weight:normal;font-size:40px;line-height:1.25;font-family:sans-serif;letter-spacing:0px;word-spacing:0px;fill:#000000;fill-opacity:1;stroke:none;stroke-width:0.26458332"
         d="m 80.200659,182.46724 q 0,2.667 -1.3335,3.8735 -1.30175,1.2065 -4.064,1.2065 h -1.04775 q -2.76225,0 -4.09575,-1.2065 -1.30175,-1.2065 -1.30175,-3.8735 v -5.715 q 0,-2.667 1.30175,-3.8735 1.3335,-1.2065 4.09575,-1.2065 h 1.04775 q 2.76225,0 4.064,1.2065 1.3335,1.2065 1.3335,3.8735 z m -2.69875,-6.35 q 0,-0.98425 -0.60325,-1.524 -0.60325,-0.53975 -1.778,-0.53975 h -1.68275 q -1.17475,0 -1.778,0.53975 -0.60325,0.53975 -0.60325,1.524 v 6.985 q 0,0.98425 0.60325,1.524 0.60325,0.53975 1.778,0.53975 h 1.68275 q 1.17475,0 1.778,-0.53975 0.60325,-0.53975 0.60325,-1.524 z" />
      <path
         inkscape:connector-curvature="0"
         id="path4779"
         style="font-style:normal;font-weight:normal;font-size:40px;line-height:1.25;font-family:sans-serif;letter-spacing:0px;word-spacing:0px;fill:#000000;fill-opacity:1;stroke:none;stroke-width:0.26458332"
         d="m 88.360377,185.16599 v -11.1125 h -2.31775 v -2.38125 h 4.85775 v 0.85725 q 1.04775,-0.85725 2.54,-0.85725 h 3.27025 v 2.54 h -3.58775 q -1.016,0 -1.524,0.66675 -0.508,0.635 -0.53975,1.30175 v 8.98525 h 3.46075 v 2.38125 h -8.47725 v -2.38125 z" />
      <path
         inkscape:connector-curvature="0"
         id="path4781"
         style="font-style:normal;font-weight:normal;font-size:40px;line-height:1.25;font-family:sans-serif;letter-spacing:0px;word-spacing:0px;fill:#000000;fill-opacity:1;stroke:none;stroke-width:0.26458332"
         d="m 108.3946,187.54724 q -2.794,0 -4.09575,-1.17475 -1.30175,-1.2065 -1.30175,-3.90525 v -5.715 q 0,-2.7305 1.17475,-3.90525 1.17475,-1.17475 3.90525,-1.17475 h 1.49225 q 2.25425,0 3.39725,1.27 1.17475,1.23825 1.17475,3.65125 v 4.1275 h -8.4455 v 2.38125 q 0,0.98425 0.60325,1.524 0.60325,0.53975 1.778,0.53975 h 5.04825 v 2.38125 z m 3.1115,-11.58875 q 0,-0.8255 -0.53975,-1.36525 -0.53975,-0.53975 -1.36525,-0.53975 h -1.8415 q -1.143,0 -1.61925,0.53975 -0.4445,0.508 -0.4445,1.524 v 2.2225 h 5.81025 z" />
      <path
         inkscape:connector-curvature="0"
         id="path4783"
         style="font-style:normal;font-weight:normal;font-size:40px;line-height:1.25;font-family:sans-serif;letter-spacing:0px;word-spacing:0px;fill:#000000;fill-opacity:1;stroke:none;stroke-width:0.26458332"
         d="m 126.74606,187.54724 q -1.0795,0 -1.905,-0.762 -0.79375,-0.762 -0.79375,-2.413 v -16.66875 h -4.66725 v -2.38125 h 7.366 v 18.89125 q 0,0.508 0.254,0.73025 0.254,0.22225 0.85725,0.22225 h 4.22275 v 2.38125 z" />
      <path
         inkscape:connector-curvature="0"
         id="path4785"
         style="font-style:normal;font-weight:normal;font-size:40px;line-height:1.25;font-family:sans-serif;letter-spacing:0px;word-spacing:0px;fill:#000000;fill-opacity:1;stroke:none;stroke-width:0.26458332"
         d="m 142.68453,187.54724 q -2.794,0 -4.09575,-1.17475 -1.30175,-1.2065 -1.30175,-3.90525 v -5.715 q 0,-2.7305 1.17475,-3.90525 1.17475,-1.17475 3.90525,-1.17475 h 1.49225 q 2.25425,0 3.39725,1.27 1.17475,1.23825 1.17475,3.65125 v 4.1275 h -8.4455 v 2.38125 q 0,0.98425 0.60325,1.524 0.60325,0.53975 1.778,0.53975 h 5.04825 v 2.38125 z m 3.1115,-11.58875 q 0,-0.8255 -0.53975,-1.36525 -0.53975,-0.53975 -1.36525,-0.53975 h -1.8415 q -1.143,0 -1.61925,0.53975 -0.4445,0.508 -0.4445,1.524 v 2.2225 h 5.81025 z" />
      <path
         inkscape:connector-curvature="0"
         id="path4787"
         style="font-style:normal;font-weight:normal;font-size:40px;line-height:1.25;font-family:sans-serif;letter-spacing:0px;word-spacing:0px;fill:#000000;fill-opacity:1;stroke:none;stroke-width:0.26458332"
         d="m 164.68725,187.54724 q -0.41275,0 -0.92075,-0.254 -0.47625,-0.254 -0.8255,-0.6985 -0.73025,0.9525 -1.93675,0.9525 h -2.82575 q -2.413,0 -3.52425,-0.9525 -1.0795,-0.98425 -1.0795,-3.33375 v -0.635 q 0,-4.92125 4.6355,-4.92125 h 3.937 v -1.5875 q 0,-0.98425 -0.60325,-1.524 -0.60325,-0.53975 -1.778,-0.53975 h -4.92125 v -2.38125 h 4.60375 q 2.76225,0 4.064,1.2065 1.3335,1.2065 1.3335,3.8735 v 7.62 q 0,0.47625 0.34925,0.73025 0.381,0.22225 1.23825,0.22225 v 2.2225 z m -4.0005,-2.38125 q 0.9525,0 1.2065,-0.4445 0.254,-0.4445 0.254,-1.143 v -3.4925 h -3.96875 q -0.8255,0 -1.36525,0.53975 -0.53975,0.53975 -0.53975,1.36525 v 1.5875 q 0,0.8255 0.381,1.2065 0.381,0.381 1.2065,0.381 z" />
      <path
         inkscape:connector-curvature="0"
         id="path4789"
         style="font-style:normal;font-weight:normal;font-size:40px;line-height:1.25;font-family:sans-serif;letter-spacing:0px;word-spacing:0px;fill:#000000;fill-opacity:1;stroke:none;stroke-width:0.26458332"
         d="m 181.99097,183.57849 q 0,2.00025 -1.23825,2.9845 -1.2065,0.98425 -3.52425,0.98425 h -4.73075 v -2.38125 h 5.04825 q 0.85725,0 1.30175,-0.34925 0.4445,-0.381 0.4445,-1.0795 v -1.68275 q 0,-1.42875 -1.36525,-1.42875 h -1.17475 q -2.2225,0 -3.33375,-0.9525 -1.0795,-0.98425 -1.0795,-3.07975 v -0.92075 q 0,-2.12725 1.2065,-3.048 1.2065,-0.9525 3.556,-0.9525 h 4.2545 v 2.38125 h -4.572 q -0.79375,0 -1.27,0.381 -0.47625,0.34925 -0.47625,1.04775 v 1.143 q 0,0.73025 0.41275,1.0795 0.4445,0.34925 1.11125,0.34925 h 1.0795 q 2.12725,0 3.2385,1.04775 1.11125,1.016 1.11125,3.048 z" />
      <path
         inkscape:connector-curvature="0"
         id="path4791"
         style="font-style:normal;font-weight:normal;font-size:40px;line-height:1.25;font-family:sans-serif;letter-spacing:0px;word-spacing:0px;fill:#000000;fill-opacity:1;stroke:none;stroke-width:0.26458332"
         d="m 194.11944,187.54724 q -2.794,0 -4.09575,-1.17475 -1.30175,-1.2065 -1.30175,-3.90525 v -5.715 q 0,-2.7305 1.17475,-3.90525 1.17475,-1.17475 3.90525,-1.17475 h 1.49225 q 2.25425,0 3.39725,1.27 1.17475,1.23825 1.17475,3.65125 v 4.1275 h -8.4455 v 2.38125 q 0,0.98425 0.60325,1.524 0.60325,0.53975 1.778,0.53975 h 5.04825 v 2.38125 z m 3.1115,-11.58875 q 0,-0.8255 -0.53975,-1.36525 -0.53975,-0.53975 -1.36525,-0.53975 h -1.8415 q -1.143,0 -1.61925,0.53975 -0.4445,0.508 -0.4445,1.524 v 2.2225 h 5.81025 z" />
      <path
         inkscape:connector-curvature="0"
         id="path4793"
         style="font-style:normal;font-weight:normal;font-size:40px;line-height:1.25;font-family:sans-serif;letter-spacing:0px;word-spacing:0px;fill:#000000;fill-opacity:1;stroke:none;stroke-width:0.26458332"
         d="m 249.74534,176.87924 -10.033,-4.318 v -2.921 l 12.065,5.68325 v 3.33375 l -12.065,5.55625 v -2.9845 z" />
      <path
         inkscape:connector-curvature="0"
         id="path4795"
         style="font-style:normal;font-weight:normal;font-size:40px;line-height:1.25;font-family:sans-serif;letter-spacing:0px;word-spacing:0px;fill:#000000;fill-opacity:1;stroke:none;stroke-width:0.26458332"
         d="m 266.89031,176.87924 -10.033,-4.318 v -2.921 l 12.065,5.68325 v 3.33375 l -12.065,5.55625 v -2.9845 z" />
    </g>
    <flowRoot
       xml:space="preserve"
       id="flowRoot4799"
       style="font-style:normal;font-weight:normal;font-size:40px;line-height:1.25;font-family:sans-serif;letter-spacing:0px;word-spacing:0px;fill:#000000;fill-opacity:1;stroke:none"
       transform="matrix(0.26458333,0,0,0.26458333,21.030783,9.2839908)"><flowRegion
         id="flowRegion4801"><rect
           id="rect4803"
           width="996.09625"
           height="276.87021"
           x="98.6549"
           y="869.02875" /></flowRegion><flowPara
         id="flowPara4805"
         style="font-style:normal;font-variant:normal;font-weight:normal;font-stretch:normal;font-size:120px;font-family:'Share Tech Mono';-inkscape-font-specification:'Share Tech Mono'">dorelease.org</flowPara></flowRoot>  </g>
</svg>
